PathFileType	4	(X/Y/Z)	CPRIT_Patient3_L_AnkleIso_Processed.TRC
DataRate	CameraRate	NumFrames	NumMarkers	Units	OrigDataRate	OrigDataStartFrame	OrigNumFrames
150.205761316872	150.205761316872	6	36	m	150.205761316872	457	       731
Frame#	Time	R.Heel			R.Midfoot.Superior			R.Midfoot.Lateral			R.Toe			L.Heel			L.Midfoot.Superior			L.Midfoot.Lateral			L.Toe			R.Shank.Superior			R.Shank.Inferior			R.Shank.Lateral			R.Shank.Posterior			L.Shank.Superior			L.Shank.Inferior			L.Shank.Posterior			L.Shank.Lateral			R.Patella			L.Patella			R.Thigh.Superior			R.Thigh.Lateral			R.Thigh.Inferior			L.Thigh.Superior			L.Thigh.Inferior			L.Thigh.Lateral			L.Asis			R.Asis			R.Shoulder			L.Shoulder			C7			J.Notch			Sternum			Thoracic			L.Elbow			L.Wrist			R.Elbow			R.Wrist			
		X1	Y1	Z1	X2	Y2	Z2	X3	Y3	Z3	X4	Y4	Z4	X5	Y5	Z5	X6	Y6	Z6	X7	Y7	Z7	X8	Y8	Z8	X9	Y9	Z9	X10	Y10	Z10	X11	Y11	Z11	X12	Y12	Z12	X13	Y13	Z13	X14	Y14	Z14	X15	Y15	Z15	X16	Y16	Z16	X17	Y17	Z17	X18	Y18	Z18	X19	Y19	Z19	X20	Y20	Z20	X21	Y21	Z21	X22	Y22	Z22	X23	Y23	Z23	X24	Y24	Z24	X25	Y25	Z25	X26	Y26	Z26	X27	Y27	Z27	X28	Y28	Z28	X29	Y29	Z29	X30	Y30	Z30	X31	Y31	Z31	X32	Y32	Z32	X33	Y33	Z33	X34	Y34	Z34	X35	Y35	Z35	X36	Y36	Z36	

457	3.035835616438	0.416294775571	0.049464387157	0.096332587105	0.571906550760	0.098847955194	0.167528143409	0.469557914201	0.037858181578	0.175897693694	0.677560047747	0.055254793726	0.217922029569	0.776235416161	0.071988761986	-0.035934585927	0.886261259759	0.192608196499	-0.111174516793	0.821802676887	0.093716118447	-0.119847503155	0.995453489072	0.206416749579	-0.165776433731	0.528405727994	0.359391332255	0.182890206978	0.519900159022	0.239738403405	0.173711574339	0.440347361059	0.293356816051	0.211743173122	0.393721502534	0.359359982294	0.143670257863	0.754068937244	0.429500497751	-0.091603032628	0.792647898183	0.306028527147	-0.087408973708	0.635801193588	0.356430990573	-0.059031720417	0.711495762726	0.322970546897	-0.126490303256	0.560322622277	0.466227362902	0.173394628124	0.732005530880	0.547389289678	-0.080888917986	0.617196963462	0.777697369910	0.195382394368	0.527451201319	0.710036870801	0.244376191051	0.604883586674	0.617364516901	0.167998017648	0.643245122664	0.823882228191	-0.084655196451	0.699419055012	0.685667836667	-0.068912577541	0.574496364686	0.730130612063	-0.134889011072	0.594963552264	0.950474844726	-0.057523413003	0.616265017075	0.937893901720	0.179406327059	0.537908055240	1.460723525506	0.209459866723	0.571722231760	1.434378626166	-0.106860962320	0.520128121128	1.482757497281	0.063015477597	0.623134991549	1.369662142973	0.061612439637	0.662719796417	1.190366233195	0.057112567476	0.413394526651	1.332576878469	0.060980047351	0.526615935854	1.176610260849	-0.293925367115	0.613330330552	0.987795357427	-0.433127064787	0.500211717554	1.184733743751	0.407634515388	0.660214765294	0.988446176360	0.416236298452	
458	3.042493150685	0.416294880958	0.049463651930	0.096332408863	0.571907616201	0.098846026920	0.167527558336	0.469558972294	0.037858110422	0.175897764614	0.677560722603	0.055253956827	0.217922896791	0.775742589063	0.071836063129	-0.036161268441	0.885739498596	0.192373668281	-0.111583660262	0.821021698708	0.093661031796	-0.120201189872	0.994717978358	0.206090557307	-0.166525489304	0.528449762129	0.359383243336	0.182897202656	0.519927472709	0.239733257419	0.173714427685	0.440385638945	0.293359225538	0.211762551102	0.393760074104	0.359370665972	0.143694006345	0.753857123406	0.429360692994	-0.091809791847	0.792331835174	0.305856125481	-0.087663551135	0.635540337475	0.356373859061	-0.059116591005	0.711178991018	0.322874916525	-0.126620817118	0.560377485035	0.466220053727	0.173403006761	0.731904772104	0.547294585236	-0.081039370411	0.617311286032	0.777689865749	0.195365621150	0.527548485990	0.710031549174	0.244395857401	0.604970478490	0.617363489801	0.168019062658	0.643235819263	0.823836024359	-0.084681875007	0.699341568033	0.685586385627	-0.069079617103	0.574437286584	0.730129976522	-0.134927968800	0.595007795782	0.950468029974	-0.057516685938	0.616351361499	0.937884550101	0.179404082230	0.537836468139	1.460715902197	0.209479045642	0.571692383866	1.434381379805	-0.106847288845	0.520071360723	1.482750161851	0.063031096147	0.623114184915	1.369688175106	0.061642512183	0.662749590011	1.190393699547	0.057141403632	0.413390175263	1.332537083904	0.060989061495	0.526618810960	1.176597342201	-0.293903660411	0.613331904919	0.987795002279	-0.433122960595	0.500151059732	1.184697153119	0.407620882923	0.660204988183	0.988446826475	0.416238428940	
459	3.049150684932	0.416294992387	0.049462972847	0.096332250698	0.571908713826	0.098844073413	0.167526832284	0.469559994087	0.037858040602	0.175897846531	0.677561492983	0.055252968651	0.217923782230	0.775205637332	0.071692095038	-0.036389901733	0.885219757226	0.192111568559	-0.111979653072	0.820225114067	0.093592294011	-0.120545813383	0.994003011784	0.205702210602	-0.167231592747	0.528494141698	0.359375466263	0.182902423378	0.519955048823	0.239728251469	0.173716242092	0.440424367002	0.293362141163	0.211781438902	0.393798925528	0.359381719003	0.143717120748	0.753627606757	0.429215646927	-0.092016402321	0.791996909001	0.305678342053	-0.087918116365	0.635257750903	0.356313290822	-0.059200892822	0.710843812161	0.322776520172	-0.126745694570	0.560432972808	0.466212099910	0.173408216057	0.731789138086	0.547193229840	-0.081192647704	0.617429217615	0.777681622662	0.195343530481	0.527649303594	0.710026112874	0.244413401513	0.605062278813	0.617363167855	0.168041069160	0.643222635970	0.823787645682	-0.084712173674	0.699255022597	0.685499951730	-0.069249333327	0.574370266442	0.730128434339	-0.134967802706	0.595051362897	0.950462054755	-0.057513397049	0.616441476427	0.937873887866	0.179397999401	0.537767067012	1.460709170693	0.209499244152	0.571663506056	1.434385568587	-0.106834158056	0.520014937183	1.482743648235	0.063048710066	0.623095469308	1.369716446270	0.061673198543	0.662782497526	1.190422854328	0.057169391497	0.413388249041	1.332497238168	0.061000492179	0.526623115500	1.176583798847	-0.293879708436	0.613333450689	0.987794584803	-0.433118213746	0.500093043010	1.184661630790	0.407608562514	0.660195927643	0.988447369696	0.416240733845	
460	3.055808219178	0.416295105799	0.049462379561	0.096332137475	0.571909832875	0.098842099932	0.167525958917	0.469560957202	0.037857982761	0.175897945337	0.677562354199	0.055251834387	0.217924658826	0.774627099796	0.071557492785	-0.036619085498	0.884702671305	0.191823356815	-0.112363219489	0.819413911178	0.093511183134	-0.120881390868	0.993308744793	0.205254056717	-0.167897874122	0.528538677383	0.359368043549	0.182906002934	0.519982763195	0.239723394533	0.173717081352	0.440463382065	0.293365523270	0.211799840277	0.393837875809	0.359393050905	0.143739674512	0.753381470527	0.429066052231	-0.092222535306	0.791644480809	0.305495898603	-0.088172170866	0.634954826140	0.356249700756	-0.059284676721	0.710491627367	0.322675940264	-0.126864627159	0.560488848303	0.466203564248	0.173410481041	0.731658994292	0.547085560360	-0.081349241871	0.617549870271	0.777672672380	0.195316707938	0.527752994569	0.710020571997	0.244428946589	0.605158851777	0.617363664901	0.168064859579	0.643205242034	0.823737249455	-0.084746514384	0.699159548774	0.685409005284	-0.069421730649	0.574295001116	0.730125886767	-0.135008427206	0.595093859415	0.950456741154	-0.057513514824	0.616534846119	0.937861967339	0.179388257948	0.537700558261	1.460703417572	0.209520348133	0.571635718077	1.434391040218	-0.106821546570	0.519959353698	1.482737980886	0.063068086019	0.623078986101	1.369746691469	0.061704237975	0.662818249656	1.190453379717	0.057196347632	0.413388848527	1.332457590366	0.061014387465	0.526628799184	1.176569661972	-0.293853597646	0.613334956146	0.987794116913	-0.433112891559	0.500038211464	1.184627510017	0.407597722377	0.660187678620	0.988447785740	0.416243164749	
461	3.062465753425	0.416295215403	0.049461899390	0.096332089868	0.571910960276	0.098840109473	0.167524928480	0.469561840894	0.037857947132	0.175898066353	0.677563301217	0.055250562569	0.217925502991	0.774009560755	0.071432865479	-0.036847494507	0.884188856672	0.191510520438	-0.112735125436	0.818589033630	0.093418987433	-0.121207979274	0.992635153140	0.204748522343	-0.168527495670	0.528583182956	0.359361012622	0.182908101746	0.520010492707	0.239718698365	0.173717027860	0.440502521563	0.293369327073	0.211817770110	0.393876742696	0.359404571385	0.143761749185	0.753119910864	0.428912596922	-0.092427859966	0.791275980764	0.305309498773	-0.088425254619	0.634633070181	0.356183525265	-0.059368041564	0.710123924303	0.322573758328	-0.126977396822	0.560544876457	0.466194524215	0.173410073942	0.731514844152	0.546971954386	-0.081509596020	0.617672336625	0.777663040174	0.195285794471	0.527858893117	0.710014938159	0.244442641831	0.605259993423	0.617365076740	0.168091194538	0.643183365151	0.823685013094	-0.084785223237	0.699055358744	0.685314044049	-0.069596801301	0.574211321299	0.730122260014	-0.135049756561	0.595134903637	0.950451895200	-0.057516977677	0.616630940987	0.937848855010	0.179375055979	0.537637609722	1.460698707479	0.209542224271	0.571609150333	1.434397597917	-0.106809388545	0.519905109599	1.482733166928	0.063088965003	0.623064864343	1.369778612747	0.061735366701	0.662856546368	1.190484933841	0.057222092054	0.413392052041	1.332418384314	0.061030747048	0.526635809399	1.176554978005	-0.293825446097	0.613336414373	0.987793613767	-0.433107074036	0.499987046636	1.184595095314	0.407588491601	0.660180321566	0.988448059126	0.416245673271	
462	3.069123287671	0.416295314092	0.049461555845	0.096332122880	0.571912081115	0.098838102963	0.167523728137	0.469562626960	0.037857943187	0.175898213728	0.677564329086	0.055249163202	0.217926294082	0.773355634334	0.071318799519	-0.037073882110	0.883678911349	0.191174555459	-0.113096168283	0.817751375142	0.093316992294	-0.121525671778	0.991982036740	0.204188058241	-0.169123651723	0.528627474171	0.359354406027	0.182908899653	0.520038115146	0.239714178033	0.173716178484	0.440541622867	0.293373503481	0.211835250990	0.393915342694	0.359416191976	0.143783429518	0.752844212071	0.428755958019	-0.092632055878	0.790892885938	0.305119824219	-0.088676962584	0.634294083474	0.356115216033	-0.059451096688	0.709742241062	0.322470541737	-0.127083871822	0.560600822847	0.466185069042	0.173407300736	0.731357320597	0.546852829186	-0.081674087787	0.617795710921	0.777652743355	0.195251456039	0.527966341308	0.710009222040	0.244454653865	0.605365415795	0.617367474002	0.168120716383	0.643156800293	0.823631132844	-0.084828499582	0.698942743769	0.685215587013	-0.069774514806	0.574119202626	0.730117509074	-0.135091703423	0.595174136306	0.950447315144	-0.057523689442	0.616729223301	0.937834629368	0.179358610250	0.537578842639	1.460695081328	0.209564720513	0.571583943431	1.434405007200	-0.106797582967	0.519852692206	1.482729197169	0.063111069667	0.623053221174	1.369811882521	0.061766322956	0.662897062063	1.190517153872	0.057246450454	0.413397913612	1.332379857797	0.061049524848	0.526644091027	1.176539806449	-0.293795400429	0.613337823162	0.987793092300	-0.433100851547	0.499939964786	1.184564661660	0.407580962144	0.660173920439	0.988448180225	0.416248214815	
